/* XPM */
static char *d7046a3a261f4e3290dc85d8cdf7469b1DZfFHbzRLK3ajWZ[] = {
/* columns rows colors chars-per-pixel */
"16 16 3 1 ",
"  c None",
". c black",
"X c #FFEC00",
/* pixels */
"     XXXXXX     ",
"   XXXXXXXXXX   ",
"  XXXXXXXXXXXX  ",
" XXXX..XXXXXXXX ",
" XXXX..XXXXXXXX ",
"XXXXXXXXXXXX    ",
"XXXXXXXXX       ",
"XXXXXXX         ",
"XXXXXXX         ",
"XXXXXXXXX       ",
"XXXXXXXXXXXX    ",
" XXXXXXXXXXXXXX ",
" XXXXXXXXXXXXXX ",
"  XXXXXXXXXXXX  ",
"   XXXXXXXXXX   ",
"     XXXXXX     "
};
