/* XPM */
static char *c490c585a5194af4b0b3e320a21679ce1cAWkIUqQgyOVzh9[] = {
/* columns rows colors chars-per-pixel */
"64 64 26 1 ",
"  c None",
". c black",
"X c #433D00",
"o c #665D00",
"O c #776E00",
"+ c #948800",
"@ c #A19400",
"# c #A99C00",
"$ c #B7AA00",
"% c #CDBE00",
"& c #D1C100",
"* c #D8C700",
"= c #E3D200",
"- c #EBDA00",
"; c #EDDB00",
": c #EEDD00",
"> c #EFDD00",
", c #F3E100",
"< c #F8E600",
"1 c #FBE900",
"2 c #FCE900",
"3 c #FDEA00",
"4 c #FEEB00",
"5 c #FFEC00",
"6 c #FFED00",
"7 c #FFEE00",
/* pixels */
"                    555555555555555555555555                    ",
"                    555555555555555555555555                    ",
"                    555555555555555555555555                    ",
"                   55555555555555555555555555                   ",
"             55555555555555555555555555555555555555             ",
"            5555555555555555555555555555555555555555            ",
"            5555555555555555555555555555555555555555            ",
"           555555555555555555555555555555555555555555           ",
"         5555555555555555555555555555555555555555555555         ",
"        555555555533331111333355555555555555555555555555        ",
"        55555555533<,>;--;>,<335555555555555555555555555        ",
"       55555555553<>=*&%%&*=><355555555555555555555555555       ",
"     5555555555553,=%$#@@#$%=,35555555555555555555555555555     ",
"    55555555555553>*$+OooO+$*>355555555555555555555555555555    ",
"    55555555555551;&#OX..XO#&;155555555555555555555555555555    ",
"    55555555555551-%@o....o@%-155555555555555555555555555555    ",
"    55555555555551-%@o....o@%-155555555555555555555555555555    ",
"    55555555555551;&#OX..XO#&;155555555555555555555555555555    ",
"    55555555555553>*$+OooO+$*>355555555555555555555555555555    ",
"   555555555555553,=%$#@@#$%=,355555555555555555555555555555    ",
"555555555555555553<>=*&%%&*=><355555555555555555555555555555    ",
"5555555555555555533<,>;--;>,<3355555555555555555555555555555    ",
"555555555555555555333311113333555555555555555555555555555555    ",
"555555555555555555555555555555555555555555555555555555555555    ",
"555555555555555555555555555555555555555555555555555555555555    ",
"555555555555555555555555555555555555555555555555555555555555    ",
"555555555555555555555555555555555555555555555555555555555555    ",
"55555555555555555555555555555555555555555555555555555555555     ",
"5555555555555555555555555555555555555555555555555               ",
"555555555555555555555555555555555555555555555555                ",
"555555555555555555555555555555555555555555555555                ",
"55555555555555555555555555555555555555555555555                 ",
"5555555555555555555555555555555555555                           ",
"555555555555555555555555555555555555                            ",
"555555555555555555555555555555555555                            ",
"555555555555555555555555555555555555                            ",
"555555555555555555555555555555555555                            ",
"555555555555555555555555555555555555                            ",
"555555555555555555555555555555555555                            ",
"5555555555555555555555555555555555555                           ",
"55555555555555555555555555555555555555555555555                 ",
"555555555555555555555555555555555555555555555555                ",
"555555555555555555555555555555555555555555555555                ",
"5555555555555555555555555555555555555555555555555               ",
"   55555555555555555555555555555555555555555555555555555555     ",
"    55555555555555555555555555555555555555555555555555555555    ",
"    55555555555555555555555555555555555555555555555555555555    ",
"    55555555555555555555555555555555555555555555555555555555    ",
"    55555555555555555555555555555555555555555555555555555555    ",
"    55555555555555555555555555555555555555555555555555555555    ",
"    55555555555555555555555555555555555555555555555555555555    ",
"     555555555555555555555555555555555555555555555555555555     ",
"       55555555555555555555555555555555555555555555555555       ",
"        555555555555555555555555555555555555555555555555        ",
"        555555555555555555555555555555555555555555555555        ",
"         5555555555555555555555555555555555555555555555         ",
"           555555555555555555555555555555555555555555           ",
"            5555555555555555555555555555555555555555            ",
"            5555555555555555555555555555555555555555            ",
"             55555555555555555555555555555555555555             ",
"                   55555555555555555555555555                   ",
"                    555555555555555555555555                    ",
"                    555555555555555555555555                    ",
"                    555555555555555555555555                    "
};
