/* XPM */
static char *_95a53a7dd184569b7ead952877a432a1TsRuAoFq6SEAG96[] = {
/* columns rows colors chars-per-pixel */
"16 16 3 1 ",
"  c None",
". c black",
"X c #FFEC00",
/* pixels */
"     XXXXXX     ",
"   XXXXXXXXXX   ",
"  XXXXXXXXXXXX  ",
" XXXX..XXXXXXXX ",
" XXXX..XXXXXXXX ",
"XXXXXXXXXXXXXXX ",
"XXXXXXXXXXXXXXX ",
"XXXXXXXXXXXXXXX ",
"XXXXXXXXXXXXXXX ",
"XXXXXXXXXXXXXXX ",
"XXXXXXXXXXXXXXX ",
" XXXXXXXXXXXXXX ",
" XXXXXXXXXXXXXX ",
"  XXXXXXXXXXXX  ",
"   XXXXXXXXXX   ",
"     XXXXXX     "
};
