/* XPM */
static char *d408904e1e484e1ab5cedd22e8d797fb[] = {
/* columns rows colors chars-per-pixel */
"64 64 59 1 ",
"  c None",
". c red",
"X c #FF0100",
"o c #FF0201",
"O c #FF0301",
"+ c #FF0602",
"@ c #FF0C04",
"# c #FF0E05",
"$ c #FF1709",
"% c #FF1F0E",
"& c #FF200E",
"* c #FF2411",
"= c #FF2511",
"- c #FF2612",
"; c #FF2A14",
": c #FF2C16",
"> c #FF331A",
", c #FF3A1E",
"< c #FF3B1F",
"1 c #FF4525",
"2 c #FF4B29",
"3 c #FF4C29",
"4 c #FF4D2A",
"5 c #FF552F",
"6 c #FF5931",
"7 c #FF5A32",
"8 c #FF6338",
"9 c #FF6438",
"0 c #FF6F3F",
"q c #FF7241",
"w c #FF7341",
"e c #FF7945",
"r c #FF7F49",
"t c #FF854D",
"y c #FF864D",
"u c #FF9053",
"i c #FF9456",
"p c #FFA05D",
"a c #FFA35F",
"s c #FFA460",
"d c #FFA661",
"f c #FFB46A",
"g c #FFB56A",
"h c #FFB86C",
"j c #FFC071",
"k c #FFC172",
"l c #FFC675",
"z c #FFCB78",
"x c #FFCF7A",
"c c #FFD07B",
"v c #FFD27C",
"b c #FFD47D",
"n c #FFD77F",
"m c #FFD880",
"M c #FFD981",
"N c #FFDA81",
"B c #FFDB81",
"V c #FFDB82",
"C c #FFDD83",
/* pixels */
"                                                                ",
"                                                                ",
"                                                                ",
"                                                                ",
"                                 NN                             ",
"                                NNNN                            ",
"                                NNnc                            ",
"                                CNvk                            ",
"             ..........      NNC    e3&........                 ",
"            ............    NNNN    1;@.........                ",
"            ............    nnnn    .+..........                ",
"           .............. tgznnzg  ..............               ",
"         ................>wdkxxkp0-................             ",
"        .................:9igllgi8;.................            ",
"        .................-6tdhhdt6-.................            ",
"       ..................%2wuppuw2%..................           ",
"     ....................$<6wrrw6<$....................         ",
"    .....................@-<3553<-@.....................        ",
"    ......................@$&--&$@......................        ",
"    ....................................................        ",
"    ....................................................        ",
"    ....................................................        ",
"    ....................................................        ",
"    ....................................................        ",
"    ....................................................        ",
"    ....................................................        ",
"    ....................................................        ",
"    ....................................................        ",
"    ....................................................        ",
"    ....................................................        ",
"    ....................................................        ",
"    ....................................................        ",
"    ....................................................        ",
"    ....................................................        ",
"    ....................................................        ",
"    ....................................................        ",
"    ....................................................        ",
"    ....................................................        ",
"    ....................................................        ",
"     ..................................................         ",
"       ..............................................           ",
"        ............................................            ",
"        ............................................            ",
"        ............................................            ",
"        ............................................            ",
"        ............................................            ",
"        ............................................            ",
"         ..........................................             ",
"           ......................................               ",
"            ....................................                ",
"            ....................................                ",
"             ..................................                 ",
"               ..............  ..............                   ",
"                ............    ............                    ",
"                ............    ............                    ",
"                 ..........      ..........                     ",
"                                                                ",
"                                                                ",
"                                                                ",
"                                                                ",
"                                                                ",
"                                                                ",
"                                                                ",
"                                                                "
};
