/* XPM */
static char *_19b8efd22c2478f9ed30ec3dfdb93d3vdqw4uxVMEMQBTbi[] = {
/* columns rows colors chars-per-pixel */
"64 64 160 2 ",
"   c None",
".  c black",
"X  c #434343",
"o  c gray40",
"O  c #666768",
"+  c #666869",
"@  c #777776",
"#  c #777777",
"$  c #777878",
"%  c DarkOrange",
"&  c #FF8D00",
"*  c #FF8E00",
"=  c #FF8F00",
"-  c #FF9000",
";  c #FF9100",
":  c #FF9200",
">  c #FF9201",
",  c #FF9202",
"<  c #FF9203",
"1  c #FF9208",
"2  c #FF930F",
"3  c #FF9310",
"4  c #FF9313",
"5  c #FF9315",
"6  c #FF941B",
"7  c #FF941D",
"8  c #FF9524",
"9  c #FF9527",
"0  c #FF962A",
"q  c #FF962B",
"w  c #FF962D",
"e  c #FF962E",
"r  c #FF972F",
"t  c #FF9730",
"y  c #FF9731",
"u  c #FF9732",
"i  c #FF9733",
"p  c #FF993D",
"a  c #FF9A3E",
"s  c #FF9A40",
"d  c #FF9A41",
"f  c #FF9B44",
"g  c #FF9C45",
"h  c #FFA053",
"j  c #FFA054",
"k  c #FFA158",
"l  c #FFA259",
"z  c #FFA665",
"x  c #FFA666",
"c  c #FFA767",
"v  c #FEA96E",
"b  c #FFA96E",
"n  c #FFAA6F",
"m  c #FFAB70",
"M  c #FFAB71",
"N  c #FFAB72",
"B  c #94908F",
"V  c #949495",
"C  c gray63",
"Z  c #A1A4A6",
"A  c #A1A5A7",
"S  c #A9A9A9",
"D  c #A9A9AA",
"F  c #A9ABAC",
"G  c #B7B2B0",
"H  c #B7B8B9",
"J  c #B7BABB",
"K  c #FFB282",
"L  c #FFB383",
"P  c #FFB384",
"I  c #FFB586",
"U  c #FCB58B",
"Y  c #FFBA91",
"T  c #FFBD98",
"R  c #FEBE9A",
"E  c #FFC09B",
"W  c #FFC09D",
"Q  c #CDC0BA",
"!  c #FFC3A3",
"~  c #FFC4A3",
"^  c #FFC5A6",
"/  c #FFC6A6",
"(  c #F8C5AB",
")  c #FFC6A8",
"_  c #FFC7A8",
"`  c #FFC7A9",
"'  c #FFC8AA",
"]  c #FFC9AB",
"[  c #EECAB8",
"{  c #FFCFB6",
"}  c #FDD3BE",
"|  c #FFD4BF",
" . c #CDCDCD",
".. c #D8CFCB",
"X. c #CDD0D1",
"o. c #CDD1D3",
"O. c #D1D0D0",
"+. c gray82",
"@. c #D1D2D3",
"#. c #D8D8D8",
"$. c #D8D9DA",
"%. c #E3CDC3",
"&. c #F3D5C6",
"*. c #FFD6C1",
"=. c #FFD6C2",
"-. c #FFDCCC",
";. c #FFDDCC",
":. c #FFDECE",
">. c #FFDFCF",
",. c #FFDFD0",
"<. c #EFE1DA",
"1. c #FFE0D1",
"2. c #FFE0D2",
"3. c #FFE1D2",
"4. c #FFE1D3",
"5. c #FFE2D5",
"6. c #FFE3D5",
"7. c #FFE3D6",
"8. c #FCE3D8",
"9. c #FFE6DB",
"0. c #E3E5E6",
"q. c #EDE8E5",
"w. c #EDE8E6",
"e. c #EBEAE9",
"r. c gray92",
"t. c #EDEAE9",
"y. c #EBECEC",
"u. c gray93",
"i. c #EFEDEC",
"p. c #EFEFEF",
"a. c #FBECE5",
"s. c #FFEDE6",
"d. c #FFEEE6",
"f. c #FBEEE9",
"g. c #FBEFEA",
"h. c #FCEFE9",
"j. c #FEEFE8",
"k. c #FBF0EB",
"l. c #FFF0E9",
"z. c #FDF1EB",
"x. c #FEF1EB",
"c. c #FEF1EC",
"v. c #FFF2EC",
"b. c #FFF4EF",
"n. c #EEF1F2",
"m. c #F3F2F1",
"M. c #F3F4F4",
"N. c #FFF6F2",
"B. c #F8F7F6",
"V. c #FCF7F5",
"C. c #FEF7F4",
"Z. c #FFFAF7",
"A. c #F8F8F8",
"S. c #FBFBFB",
"D. c #FDF9F8",
"F. c #FFFBF9",
"G. c #FCFAFA",
"H. c #FBFCFC",
"J. c #FFFDFC",
"K. c white",
/* pixels */
"                                        : : : : : : : : : : : : : : : : : : : : : : : :                                         ",
"                                        : : : : : : : : : : : : : : : : : : : : : : : :                                         ",
"                                        : : : : : : : : : : : : : : : : : : : : : : : :                                         ",
"                                      : : : : : : : : : : : : : : : : : : : : : : : : : :                                       ",
"                          : : : : : : : : : : : : : : : : : : : : : : : : : : : : : : : : : : : : : :                           ",
"                        : : : : : : : : : : : : : : : : : : : : : : : : : : : : : : : : : : : : : : : :                         ",
"                        : : : : : : : : : : : : : : : : : : : : : : : : : : : : : : : : : : : : : : : :                         ",
"                      : : : : : : : : : : : : : : : : : : : : : : : : : : : : : : : : : : : : : : : : : :                       ",
"                  : : : : : : : : : : : : : : : : : : : : : : : : : : : : : : : : : : : : : : : : : : : : : :                   ",
"                : : : : : : : : : : : : : : : : : : : : : : : : : : : : : : : : : : : : : : : : : : : : : : : :                 ",
"                : : : : : : : : : : : : : : : : : : : : : : : : : : : : : : : : : : : : : : : : : : : : : : : :                 ",
"              : : : : : : : : : : : = = = = : : : : : : : : : : : : : : : : : : : : = = = = : : : : : : : : : : :               ",
"          : : : : : : : : : : : : : = = = = : : : : : : : : : : : : : : : : : : : : = = = = : : : : : : : : : : : : :           ",
"        : : : : : : : : : : 3 7 9 e y y y y e 9 7 3 : : : : : : : : : : : : 3 7 9 e y y y y e 9 7 3 : : : : : : : : : :         ",
"        : : : : : : : : : 1 0 f k z b M M b z k f 0 1 : : : : : : : : : : 1 0 f k z b M M b z k f 0 1 : : : : : : : : :         ",
"        : : : : : : : : = : p z L T ! ) ) ! T L z p : = : : : : : : : : = : p z L T ! ) ) ! T L z p : = : : : : : : : :         ",
"        : : : : : : : = = 3 h L ^ | -.2.2.-.| ^ L h 3 = = : : : : : : = = 3 h L ^ | -.2.2.-.| ^ L h 3 = = : : : : : : :         ",
"        : : : : : : 1 : 3 d b W *.9.l.b.b.l.9.*.W b d 3 : 1 : : : : 1 : 3 d b W *.9.l.b.b.l.9.*.W b d 3 : 1 : : : : : :         ",
"        : : : : : 3 0 p h b Y { 6.v.F.K.K.F.v.6.{ Y b h p 0 2 : : 2 0 p h b Y { 6.v.F.K.K.F.v.6.{ Y b h p 0 3 : : : : :         ",
"        : : : : : 7 f z L W { ,.d.Z.K.K.K.K.Z.d.,.{ W L z f 6 : : 6 f z L W { ,.d.Z.K.K.K.K.Z.d.,.{ W L z f 7 : : : : :         ",
"        : : : : : 9 k L ^ *.6.d.N.K.K.K.K.K.K.N.d.6.*.^ L k 9 = = 9 k L ^ *.6.d.N.K.K.K.K.K.K.N.d.6.*.^ L k 9 : : : : :         ",
"        : : : : : e z T | 9.l.C.F.F.S.H.H.S.F.F.C.l.9.| T z 0 = = 0 z T | 9.l.C.F.F.S.H.H.S.F.F.C.l.9.| T z e : : : : :         ",
"        : : : = = y b ~ -.j.C.S.M.p.p.y.y.p.p.M.S.C.j.-.~ b e = = e b ~ -.j.C.S.M.p.p.y.y.p.p.M.S.C.j.-.~ b y = = : : :         ",
"      : : : : = = y M ) 2.v.B.n.0.#.+. . .+.#.0.n.B.v.2.) M y = = y M ) 2.v.B.n.0.#.+. . .+.#.0.n.B.v.2.) M y = = : : : :       ",
": : : : : : : = = y M ) 2.l.m.0.X.J D C C D J X.0.m.l.2.) M y = = y M ) 2.l.m.0.X.J D C C D J X.0.m.l.2.) M y = = : : : : : : : ",
": : : : : : : = = y M ) 2.j.p.#.J V @ o o @ V J #.p.j.2.) M e = = e M ) 2.j.p.#.J V @ o o @ V J #.p.j.2.) M y = = : : : : : : : ",
": : : : : : : = = y M ) 2.f.t.+.F $ X . . X $ F +.t.f.2.) M e = = e M ) 2.f.t.+.F $ X . . X $ F +.t.f.2.) M y = = : : : : : : : ",
": : : : : : : = = y M ' 2.f.e.X.A O . . . . O A X.e.f.2.' M y = = y M ' 2.f.e.X.A O . . . . O A X.e.f.2.' M y = = : : : : : : : ",
": : : : : : : = = y M ' 2.f.e.X.A O . . . . O A X.e.f.2.' M y = = y M ' 2.f.e.X.A O . . . . O A X.e.f.2.' M y = = : : : : : : : ",
": : : : : : : = = y b ^ -.a.q.+.D @ X . . X @ D +.q.a.-.^ b e = = e b ^ -.a.q.+.D @ X . . X @ D +.q.a.-.^ b y = = : : : : : : : ",
": : : : : : : : : e z E *.8.<...G B @ + + @ B G ..<.8.*.E z 0 = = 0 z E *.8.<...G B @ + + @ B G ..<.8.*.E z e : : : : : : : : : ",
": : : : : : : : : 9 k I ) } &.%.Q G D A A D G Q %.&.} ) I k 9 = = 9 k I ) } &.%.Q G D A A D G Q %.&.} ) I k 9 : : : : : : : : : ",
": : : : : : : : : 7 g z P T ( [ %...+.X.X.+...%.[ ( T P z g 6 : : 6 g z P T ( [ %...+.X.X.+...%.[ ( T P z g 7 : : : : : : : : : ",
": : : : : : : : : 3 0 p j b U ( &.<.q.e.e.q.<.&.( U b j p 0 2 : : 2 0 p j b U ( &.<.q.e.e.q.<.&.( U b j p 0 3 : : : : : : : : : ",
": : : : : : : : : : 1 : 5 d b T } 8.a.k.k.a.8.} T b d 5 : 1 : : : : 1 : 5 d b T } 8.a.k.k.a.8.} T b d 5 : 1 : : : : : : : : : : ",
": : : : : : : : : : : = = 5 j P ) *.-.6.6.-.*.) P j 5 = = : : : : : : = = 5 j P ) *.-.6.6.-.*.) P j 5 = = : : : : : : : : : : : ",
": : : : : : : : : : : : = : p z I E ^ ' ' ^ E I z p : = : : : : : : : : = : p z I E ^ ' ' ^ E I z p : = : : : : : : : : : : : : ",
": : : : : : : : : : : : : 1 0 g k z b M M b z k g 0 1 : : : : : : : : : : 1 0 g k z b M M b z k g 0 1 : : : : : : : : : : : : : ",
": : : : : : : : : : : : : : 3 7 9 e y y y y e 9 7 3 : : : : : : : : : : : : 3 7 9 e y y y y e 9 7 3 : : : : : : : : : : : : : : ",
": : : : : : : : : : : : : : : : : : = = = = : : : : : : : : : : : : : : : : : : : : = = = = : : : : : : : : : : : : : : : : : : ",
": : : : : : : : : : : : : : : : : : = = = = : : : : : : : : : : : : : : : : : : : : = = = = : : : : : : : : : : : : : : : : : : ",
": : : : : : : : : : : : : : : : : : : : : : : : : : : : : : : : : : : : : : : : : : : : : : : : : : : : : : : : : : : : : : : : ",
": : : : : : : : : : : : : : : : : : : : : : : : : : : : : : : : : : : : : : : : : : : : : : : : : : : : : : : : : : : : : : : : ",
": : : : : : : : : : : : : : : : : : : : : : : : : : : : : : : : : : : : : : : : : : : : : : : : : : : : : : : : : : : : : : : : ",
": : : : : : : : : : : : : : : : : : : : : : : : : : : : : : : : : : : : : : : : : : : : : : : : : : : : : : : : : : : : : : : : ",
": : : : : : : : : : : : : : : : : : : : : : : : : : : : : : : : : : : : : : : : : : : : : : : : : : : : : : : : : : : : : : : : ",
": : : : : : : : : : : : : : : : : : : : : : : : : : : : : : : : : : : : : : : : : : : : : : : : : : : : : : : : : : : : : : : : ",
": : : : : : : : : : : : : : : : : : : : : : : : : : : : : : : : : : : : : : : : : : : : : : : : : : : : : : : : : : : : : : : : ",
": : : : : : : : : : : : : : : : : : : : : : : : : : : : : : : : : : : : : : : : : : : : : : : : : : : : : : : : : : : : : : : : ",
": : : : : : : : : : : : : : : : : : : : : : : : : : : : : : : : : : : : : : : : : : : : : : : : : : : : : : : : : : : : : : : : ",
": : : : : : : : : : : : : : : : : : : : : : : : : : : : : : : : : : : : : : : : : : : : : : : : : : : : : : : : : : : : : : : : ",
": : : : : : : : : : : : : : : : : : : : : : : : : : : : : : : : : : : : : : : : : : : : : : : : : : : : : : : : : : : : : : : : ",
": : : : : : : : : : : : : : : : : : : : : : : : : : : : : : : : : : : : : : : : : : : : : : : : : : : : : : : : : : : : : : : : ",
": : : : : : : : : : : : : : : : : : : : : : : : : : : : : : : : : : : : : : : : : : : : : : : : : : : : : : : : : : : : : : : : ",
": : : : : : : : : : : : : : : : : : : : : : : : : : : : : : : : : : : : : : : : : : : : : : : : : : : : : : : : : : : : : : : : ",
": : : : : : : : : : : : : : : : : : : : : : : : : : : : : : : : : : : : : : : : : : : : : : : : : : : : : : : : : : : : : : : : ",
": : : : : : : : :     : : : : : : : : : : : : : : : : : :             : : : : : : : : : : : : : : : : : :     : : : : : : : : : ",
": : : : : : : :         : : : : : : : : : : : : : : : :                 : : : : : : : : : : : : : : : :         : : : : : : : : ",
": : : : : : : :         : : : : : : : : : : : : : : : :                 : : : : : : : : : : : : : : : :         : : : : : : : : ",
": : : : : : :             : : : : : : : : : : : : : :                     : : : : : : : : : : : : : :             : : : : : : : ",
": : : : :                     : : : : : : : : : :                             : : : : : : : : : :                     : : : : : ",
": : : :                         : : : : : : : :                                 : : : : : : : :                         : : : : ",
": : : :                         : : : : : : : :                                 : : : : : : : :                         : : : : ",
": : : :                         : : : : : : : :                                 : : : : : : : :                         : : : : "
};
