/* XPM */
static char *_2d345ba3ba440c8e5095db2c965cc896KEPrzfNBgdbBs71[] = {
/* columns rows colors chars-per-pixel */
"64 64 152 2 ",
"   c None",
".  c #001429",
"X  c #021432",
"o  c #02163B",
"O  c #00183C",
"+  c #031643",
"@  c #05164B",
"#  c #08144D",
"$  c #02194D",
"%  c #061753",
"&  c #0A1454",
"*  c #0A155A",
"=  c #001D5C",
"-  c #09185D",
";  c #0C1764",
":  c #001E64",
">  c #0E176B",
",  c #021D6B",
"<  c #061D73",
"1  c #081D77",
"2  c #071D78",
"3  c #091D7C",
"4  c #111773",
"5  c #121875",
"6  c #14177C",
"7  c #131878",
"8  c #00287C",
"9  c #0D1D83",
"0  c #0F1D88",
"q  c #101C87",
"w  c #111D8C",
"e  c #151D94",
"r  c #191D9B",
"t  c #013383",
"y  c #04338B",
"u  c #073392",
"i  c #093394",
"p  c #013F97",
"a  c #0D339B",
"s  c #033F9B",
"d  c #10339F",
"f  c #1E1DA3",
"g  c #201DA7",
"h  c #1233A4",
"j  c #1633AA",
"k  c #1A33AF",
"l  c #1C33B4",
"z  c #2133BC",
"x  c #0E56B2",
"c  c #2775B1",
"v  c #2A76B2",
"b  c #2E75BA",
"n  c #2D7CBC",
"m  c #3175BD",
"M  c #307EBD",
"N  c #2533C2",
"B  c #2833C6",
"V  c #2D33CC",
"C  c #3033CF",
"Z  c #2F33D0",
"A  c #3033D0",
"S  c #3375C3",
"D  c #327DC1",
"F  c #3675CA",
"G  c #3975CD",
"H  c #3C75D3",
"J  c #3F75D9",
"K  c #4275DC",
"L  c #4775E1",
"P  c #4C75E5",
"I  c #5175E8",
"U  c #3689CC",
"Y  c #398ACE",
"T  c #47A2DC",
"R  c #4AA4DC",
"E  c #45AEDE",
"W  c #49AEDF",
"Q  c #47B1DE",
"!  c #49B1DE",
"~  c #4DAEE2",
"^  c #52AEE5",
"/  c #56AEE9",
"(  c #5AAFEC",
")  c #4DB2E1",
"_  c #52B3E4",
"`  c #56BDE7",
"'  c #55B0E9",
"]  c #5BB0ED",
"[  c #57BCE8",
"{  c #5ABEE9",
"}  c #5DAFF0",
"|  c #5EB0F0",
" . c #60B0EF",
".. c #63AFF2",
"X. c #6BAFF5",
"o. c #72AEF7",
"O. c #64B0F2",
"+. c #6CB0F5",
"@. c #72B0F7",
"#. c #5CC1E7",
"$. c #5DC3EC",
"%. c #4FC5F0",
"&. c #52C5F1",
"*. c #5CC6F4",
"=. c #54C8F1",
"-. c #58C9F2",
";. c #5ECAF3",
":. c #5BCCF2",
">. c #5FCAF4",
",. c #5ECDF4",
"<. c #61C5EC",
"1. c #63C8EB",
"2. c #61C5F6",
"3. c #60C6F6",
"4. c #62C6F7",
"5. c #64C5F7",
"6. c #64C6F7",
"7. c #62C6F7",
"8. c #60CCF4",
"9. c #65C5F8",
"0. c #67C6F8",
"q. c #65C6F9",
"w. c #6AC7F9",
"e. c #69C6FA",
"r. c #6DC6FB",
"t. c #6DC6FA",
"y. c #6BC6FA",
"u. c #71C6FB",
"i. c #72C6FB",
"p. c #76C6FB",
"a. c #77C6FC",
"s. c #74C6FC",
"d. c #7AC6FC",
"f. c #7BC6FC",
"g. c #7EC5FD",
"h. c #7EC6FD",
"j. c #7CC6FD",
"k. c #62D1F3",
"l. c #63D2F4",
"z. c #66D2F5",
"x. c #66D3F5",
"c. c #67D5F4",
"v. c #64D2F5",
"b. c #68D5F5",
"n. c #6AD6F6",
"m. c #6BD7F6",
"M. c #6AD6F5",
"N. c #6EDAF6",
"B. c #70DCF5",
"V. c #80C5FD",
"C. c #80C6FD",
"Z. c #81C6FD",
/* pixels */
"    b.z.>.*.*.*.3.3.6.0.0.w.t.u.p.d.g.V.V.g.d.a.u.t.w.0.0.6.3.*.*.*.*.=.=.&.&.&.&.&.&.&.&.&.&.&.&.&.&.&.&.&.&.&.&.&.&.-.k.c.    ",
"    $.{ _ ~ ^ ^ ^ / / ( ] ] ....X.X.o.o.o.o.X.X.....} ( / / / ^ ^ ~ ~ ~ W W E E E E E E E E E E E E E E E E E E E E E ) ` $.    ",
"b.$.T Y D m m S S F G H H K K L P P I I I I P P L K K H H G F S S m b b b v v v v v v v v v v v v v v v v v v v v v v n U T $.b.",
"l.` U x s i i a a h j l l z N B V V V Z A C V V B N z l l j h h a i u y y y t t t t t t t t t t t t t t t t t t t t t p x Y { z.",
":.) n p 8 , , < 1 3 9 q w e r r f f f f g g f f r r e w q 9 3 1 < , , : : : = = = = = = = = = = = = = = = = = = = = : 8 p D _ ;.",
"=.! v t : $ @ @ % * - ; > > 4 5 7 6 6 6 6 6 6 7 5 4 > > ; - * % @ @ + + + O O O O O o o O O o o O O O o o o o o O + $ , u b ~ -.",
"=.! v t = + o o o o + + @ # & & * * * * * * * * * & # @ + + o O o X X X X X . . . . . . X X X . X X . . . . . . X o + , u b ~ -.",
"=.! v t = O X . . . X X X X X o o o o o o o o o o o X X X X . . . . . . . . . . . . . . . . . . . . . . . . . . . X @ , i m ~ *.",
"=.! v t = O X . . . . . . . . . . . X X X X . . . . . . . . . . . . . . . . . . . . . . . . . . . . . . . . . . . o @ < a S ~ *.",
"=.! v t = o X . . . . . . . . . . . . . . . . . . . . . . . . . . . . . . . . . . . . . . . . . . . . . . . . . . o % 1 a S ^ *.",
"=.! v t = o . . . . . . . . . . . . . . . . . . . . . . . . . . . . . . . . . . . . . . . . . . . . . . . . . . . O % 3 h F ^ 3.",
"=.! v t = O . . . . . . . . . . . . . . . . . . . . . . . . . . . . . . . . . . . . . . . . . . . . . . . . . . . + - 9 j G / 3.",
"=.! v t = O . . . . . . . . . . . . . . . . . . . . . . . . . . . . . . . . . . . . . . . . . . . . . . . . . . X + ; 0 l H / 0.",
"=.! v t = O . . . . . . . . . . . . . . . . . . . . . . . . . . . . . . . . . . . . . . . . . . . . . . . . . . X @ > w l H ( 0.",
"=.! v t = O X . . . . . . . . . . . . . . . . . . . . . . . . . . . . . . . . . . . . . . . . . . . . . . . . . X # > e z J ( w.",
"=.! v t = O X . . . . . . . . . . . . . . . . . . . . . . . . . . . . . . . . . . . . . . . . . . . . . . . . . X & 4 r N K ..t.",
"=.! v t = O X . . . . . . . . . . . . . . . . . . . . . . . . . . . . . . . . . . . . . . . . . . . . . . . . . o & 5 r B L ..i.",
"=.! v t = O X . . . . . . . . . . . . . . . . . . . . . . . . . . . . . . . . . . . . . . . . . . . . . . . . . o * 7 f V L X.a.",
"=.! v t = O . . . . . . . . . . . . . . . . . . . . . . . . . . . . . . . . . . . . . . . . . . . . . . . . . . o * 6 f V P X.d.",
"=.! v t = O . . . . . . . . . . . . . . . . . . . . . . . . . . . . . . . . . . . . . . . . . . . . . . . . . . o * 6 f V I o.g.",
"=.! v t = o . . . . . . . . . . . . . . . . . . . . . . . . . . . . . . . . . . . . . . . . . . . . . . . . . X o * 6 g C I o.V.",
"=.! v t = o . . . . . . . . . . . . . . . . . . . . . . . . . . . . . . . . . . . . . . . . . . . . . . . . . X o * 6 g C I o.V.",
"=.! v t = o X . . . . . . . . . . . . . . . . . . . . . . . . . . . . . . . . . . . . . . . . . . . . . . . . . o * 6 f V I o.g.",
"=.! v t = O X . . . . . . . . . . . . . . . . . . . . . . . . . . . . . . . . . . . . . . . . . . . . . . . . . o * 7 f V P X.d.",
"=.! v t = O X . . . . . . . . . . . . . . . . . . . . . . . . . . . . . . . . . . . . . . . . . . . . . . . . . o * 7 f V P X.a.",
"-.! b t = O X . . . . . . . . . . . . . . . . . . . . . . . . . . . . . . . . . . . . . . . . . . . . . . . . . o * 5 r B L ..u.",
"-.) b y : + X . . . . . . . . . . . . . . . . . . . . . . . . . . . . . . . . . . . . . . . . . . . . . . . . . X & 4 r N K ..t.",
"-.) m y : + X . . . . . . . . . . . . . . . . . . . . . . . . . . . . . . . . . . . . . . . . . . . . . . . . . X # > e z K } w.",
"*._ m u , + X . . . . . . . . . . . . . . . . . . . . . . . . . . . . . . . . . . . . . . . . . . . . . . . . . X @ > w l H ( w.",
"*._ m i , @ X . . . . . . . . . . . . . . . . . . . . . . . . . . . . . . . . . . . . . . . . . . . . . . . . . X + ; q l H ( 0.",
"*._ S a < @ o . . . . . . . . . . . . . . . . . . . . . . . . . . . . . . . . . . . . . . . . . . . . . . . . . X + - 9 j G ' 3.",
"3.' S d 1 % O . . . . . . . . . . . . . . . . . . . . . . . . . . . . . . . . . . . . . . . . . . . . . . . . . . O * 3 h F ' 3.",
"3.' F h 3 * O . . . . . . . . . . . . . . . . . . . . . . . . . . . . . . . . . . . . . . . . . . . . . . . . . . O % 2 h S ^ *.",
"6.' G j 9 - + X . . . . . . . . . . . . . . . . . . . . . . . . . . . . . . . . . . . . . . . . . . . . . . . . . o @ < a S ^ *.",
"w.] H l q ; + X . . . . . . . . . . . . . . . . . . . . . . . . . . . . . . . . . . . . . . . . . . . . . . . . . X @ , i m ^ *.",
"w.] H l w > @ X . . . . . . . . . . . . . . . . . . . . . . . . . . . . . . . . . . . . . . . . . . . . . . . . . X + , u m ~ -.",
"t. .K z e > # X . . . . . . . . . . . . . . . . . . . . . . . . . . . . . . . . . . . . . . . . . . . . . . . . . X + : y b ~ -.",
"t.O.K N r 4 & X . . . . . . . . . . . . . . . . . . . . . . . . . . . . . . . . . . . . . . . . . . . . . . . . . X + : y b ~ -.",
"u.O.L B r 5 & o . . . . . . . . . . . . . . . . . . . . . . . . . . . . . . . . . . . . . . . . . . . . . . . . . X O : y b ! =.",
"a.+.P V f 7 * o . . . . . . . . . . . . . . . . . . . . . . . . . . . . . . . . . . . . . . . . . . . . . . . . . . O = t v ! =.",
"d.+.P V f 7 * o . . . . . . . . . . . . . . . . . . . . . . . . . . . . . . . . . . . . . . . . . . . . . . . . . . O = t v ! =.",
"g.@.I C g 6 * o X . . . . . . . . . . . . . . . . . . . . . . . . . . . . . . . . . . . . . . . . . . . . . . . . . O = t v ! &.",
"V.@.I C g 6 * o X . . . . . . . . . . . . . . . . . . . . . . . . . . . . . . . . . . . . . . . . . . . . . . . . . O = t v Q =.",
"V.@.I C g 6 * o . . . . . . . . . . . . . . . . . . . . . . . . . . . . . . . . . . . . . . . . . . . . . . . . . . O = t v Q =.",
"g.@.I V f 6 * o . . . . . . . . . . . . . . . . . . . . . . . . . . . . . . . . . . . . . . . . . . . . . . . . . X O = t v Q =.",
"d.+.P V f 6 * o . . . . . . . . . . . . . . . . . . . . . . . . . . . . . . . . . . . . . . . . . . . . . . . . . . O = t v Q =.",
"a.+.P V f 7 * o . . . . . . . . . . . . . . . . . . . . . . . . . . . . . . . . . . . . . . . . . . . . . . . . . X O = t v Q =.",
"u.O.L B r 5 * o . . . . . . . . . . . . . . . . . . . . . . . . . . . . . . . . . . . . . . . . . . . . . . . . . X O = t v ! =.",
"t.O.K N r 4 & o . . . . . . . . . . . . . . . . . . . . . . . . . . . . . . . . . . . . . . . . . . . . . . . . . . O = t v ! =.",
"w.| K z e > # X . . . . . . . . . . . . . . . . . . . . . . . . . . . . . . . . . . . . . . . . . . . . . . . . . X O = t v ! =.",
"0.] H l w > @ X . . . . . . . . . . . . . . . . . . . . . . . . . . . . . . . . . . . . . . . . . . . . . . . . . X O = t v ! =.",
"0.] H k q ; + X . . . . . . . . . . . . . . . . . . . . . . . . . . . . . . . . . . . . . . . . . . . . . . . . . X O = t v ! =.",
"0./ G j 9 - + X . . . . . . . . . . . . . . . . . . . . . . . . . . . . . . . . . . . . . . . . . . . . . . . . . . O = t v ! =.",
"3./ F h 3 % O . . . . . . . . . . . . . . . . . . . . . . . . . . . . . . . . . . . . . . . . . . . . . . . . . . . O = t v ! =.",
"*.^ S d 1 % O . . . . . . . . . . . . . . . . . . . . . . . . . . . . . . . . . . . . . . . . . . . . . . . . . . . o = t v ! =.",
"*.^ S a < @ o . . . . . . . . . . . . . . . . . . . . . . . . . . . . . . . . . . . X X X X . . . . . . . . . . . . o = t v ! =.",
"*.^ m i , @ X . . . . . . . . . . . . . . . . . . . . . . . . . . . X X X X X o o o o o o o o o o X X X X X . . . X O = t v ! =.",
"-.~ b u , + o X . . . . . . . . . . . . . . . . . . X X X X X o O o + + @ # & * * * * * * * * * & & @ @ + + o o o o + = t v ! =.",
"-.) b y , $ + O O o o o o o o o o o o o o o o o O O O + + + @ @ % * - ; > > 4 5 7 6 6 6 6 6 6 7 5 4 > > ; - * % @ @ $ : y v ! =.",
"8._ D p 8 : = = = = = = = = = = = = = = = = = = = = : : : , , < 1 3 9 q w e r r f f f g g g f f r r e w q 9 3 1 < , , 8 p M _ ,.",
"b.{ Y x p t t t t t t t t t t t t t t t t t t t t t t y y u i a h h j l l z N B V V V Z Z V V V B N z l k j h d a i i s x Y #.b.",
"N.<.R U n c c c v v c c c c c c c c v v v v v v v v v v b b m S S F G H H J K L P P I I I I P L L K J H H G F S S m b D Y R 1.B.",
"    $.[ ) E E E E E E E E E E E E E E E E E E E E E E ~ ~ ~ ~ ^ ^ / / ( ( } ....X.X.o.o.o.o.X.X.....( ( / / / ^ ^ ~ ) _ { <.    ",
"    b.z.=.%.%.%.&.&.%.%.%.%.%.%.%.%.&.&.&.&.&.&.&.&.&.&.=.*.*.*.*.3.3.0.0.w.t.i.a.d.g.V.V.g.d.p.u.t.w.0.0.3.3.*.*.*.*.>.b.m.    "
};
